<svg width="32" height="32" viewBox="0 0 32 32" fill="none" xmlns="http://www.w3.org/2000/svg">
  <!-- Cyan background with rounded corners -->
  <rect width="32" height="32" rx="6" fill="#00D4FF"/>
  
  <!-- Pink character body -->
  <path d="M8 10C8 7.5 10 5.5 12.5 5.5C15 5.5 17 7.5 17 10V18C17 20.5 15 22.5 12.5 22.5C10 22.5 8 20.5 8 18V10Z" fill="#EC4899" stroke="#1F2937" stroke-width="1"/>
  
  <!-- Character left arm -->
  <ellipse cx="6.5" cy="13" rx="2" ry="4" fill="#EC4899" stroke="#1F2937" stroke-width="1"/>
  
  <!-- Character right arm -->
  <ellipse cx="18.5" cy="13" rx="2" ry="4" fill="#EC4899" stroke="#1F2937" stroke-width="1"/>
  
  <!-- Character eyes -->
  <ellipse cx="11" cy="12" rx="1" ry="1.5" fill="#1F2937"/>
  <ellipse cx="14" cy="12" rx="1" ry="1.5" fill="#1F2937"/>
  
  <!-- Character smile -->
  <path d="M10.5 15.5C11.2 16.5 12 17 12.5 17C13 17 13.8 16.5 14.5 15.5" stroke="#1F2937" stroke-width="1.2" stroke-linecap="round"/>
</svg>